<svg version="1.2" xmlns="http://www.w3.org/2000/svg" viewBox="0 0 1024 1024" width="1024" height="1024">
	<style>
		.s0 { fill: #c8ae89 } 
	</style>
	<g id="Layer 1">
		<g id="Background">
			<g id="&lt;Group&gt;">
				<path id="Path 1" fill-rule="evenodd" class="s0" d="m512.14 54c0.51 0 1.17 2.14 1.47 4.75 0.29 2.61 2.32 10.15 4.51 16.75 2.18 6.6 5.57 14.92 7.52 18.5 1.96 3.58 5.42 8.93 7.71 11.9 2.28 2.97 6.02 6.8 12.48 11.6l-2.66 1.64c-1.47 0.91-5.04 4.06-7.93 7-2.89 2.95-7.03 8.73-9.2 12.86-2.17 4.13-4.91 11.1-6.09 15.5-1.36 5.05-2.19 11.31-2.27 17-0.07 4.95 0.48 11.47 1.23 14.5 0.75 3.03 2.37 7.53 3.6 10 1.23 2.47 3.99 6.04 9.99 11.34l-5.25 5.33c-3.53 3.59-6.56 8.11-9.25 13.83-2.2 4.68-4 8.95-4 9.5 0 0.55-0.49 2.24-1.09 3.75-1.08 2.72-1.11 2.68-2.82-2.75-0.94-3.03-3.49-8.86-5.65-12.96-2.17-4.11-6.08-9.62-13.44-17.04l2.75-1.84c1.51-1.02 4.21-4.17 6-7 1.79-2.84 4.01-7.75 4.94-10.91 1.07-3.66 1.66-9.02 1.61-14.75-0.05-4.95-0.83-12.15-1.73-16-0.91-3.85-3.39-10.6-5.52-15-2.13-4.4-5.49-10.14-7.46-12.75-1.98-2.61-5.81-6.21-13.46-11.25l4.69-3.85c2.57-2.11 6.42-6.16 8.54-9 2.13-2.83 5.79-8.98 8.13-13.65 2.35-4.67 5.63-12.78 7.3-18 1.66-5.22 3.34-11.64 3.72-14.25 0.38-2.61 1.11-4.75 1.63-4.75zm-1.46 38.52c-0.37 2.47-1.58 7.07-2.69 10.23-1.1 3.16-3.35 7.89-5 10.5l-2.99 4.75c4.54 7.36 6.85 13.1 8.07 17.5 1.22 4.4 2.77 12.5 3.45 18l1.23 10c0.22-13.95 0.95-20.81 1.76-24.25 0.82-3.44 2.66-8.61 4.1-11.5 1.44-2.89 3.46-6.26 4.5-7.5 1.88-2.23 1.87-2.28-1.66-7-1.95-2.61-4.45-7.22-5.56-10.25-1.11-3.03-2.33-7.46-2.71-9.86-0.37-2.4-0.94-4.53-1.25-4.73-0.32-0.2-0.88 1.65-1.25 4.11zm1.07 94.73c-0.41 0.96-0.77 3.66-0.79 6-0.03 2.34-0.43 6.27-0.91 8.75-0.52 2.75-0.45 6.64 0.18 10 0.57 3.02 1.27 6.18 1.56 7 0.34 0.97 0.78 0.44 1.25-1.5 0.4-1.65 0.72-6.6 0.72-11 0.01-4.4-0.28-10.93-0.63-14.5-0.41-4.22-0.89-5.89-1.38-4.75z"/>
				<path id="Path 1" fill-rule="evenodd" class="s0" d="m463 125.48c3.02 0.26 7.75 1.59 10.5 2.95 2.75 1.36 6.89 4.41 9.19 6.77 2.3 2.37 5.81 7 7.78 10.3 1.98 3.3 4.48 8.93 5.55 12.5 1.2 4.02 1.96 9.55 1.99 14.5 0.02 5.23-0.67 10.34-1.99 14.75-1.39 4.63-3.2 8.03-5.77 10.82-2.41 2.61-5.18 4.43-7.75 5.1-2.2 0.56-5.57 0.75-7.5 0.42-1.93-0.33-4.63-1.33-8.5-3.83l5.75-1.88c4.19-1.37 6.29-1.61 7.75-0.88 1.18 0.59 2.71 0.65 3.75 0.13 0.96-0.48 2.99-2.28 4.5-4 1.81-2.06 2.96-4.75 3.37-7.88 0.39-3.06 0.02-7.06-1.05-11.25-0.91-3.57-3.08-8.97-4.82-12-1.74-3.03-5.43-7.78-8.2-10.56-2.78-2.79-7.75-6.37-11.05-7.97-5.07-2.46-7.24-2.92-14-2.94-5.76-0.02-8.91 0.46-11.25 1.72-3.1 1.67-3.25 1.67-3.23 0 0.01-0.96 1.14-3.66 2.5-6 1.36-2.34 3.94-5.24 5.73-6.46 1.79-1.21 5.05-2.78 7.25-3.49 2.26-0.72 6.4-1.08 9.5-0.82z"/>
				<path id="Path 1" fill-rule="evenodd" class="s0" d="m565.5 125.5c3.74 0.35 7.6 1.49 10.25 3.03 2.44 1.42 5.53 4.49 7.26 7.22 1.66 2.61 3.01 5.54 3 6.5-0.01 1.66-0.17 1.67-3.26 0.01-2.35-1.26-5.59-1.75-11.75-1.75-7.84-0.01-9 0.26-14.9 3.49-3.68 2.01-8.51 5.84-11.35 9-2.73 3.03-6.6 8.85-8.6 12.95-3.23 6.59-3.65 8.32-3.63 15 0.01 5.21 0.56 8.56 1.75 10.8 0.95 1.79 3.19 3.87 4.98 4.64 2.21 0.94 4.05 1.1 5.75 0.49 1.79-0.63 3.93-0.36 12.5 2.84l-2.5 1.66c-1.38 0.91-4.3 1.93-6.5 2.26-2.2 0.34-5.69 0.11-7.75-0.51-2.06-0.62-5.17-2.59-6.9-4.38-1.74-1.79-3.93-5.05-4.88-7.25-0.94-2.2-2.18-6.93-2.76-10.5-0.67-4.23-0.72-9.21-0.12-14.25 0.5-4.26 1.81-10.11 2.9-13 1.1-2.89 3.01-6.88 4.25-8.87 1.24-1.99 3.38-4.92 4.76-6.51 1.37-1.59 4.48-4.47 6.89-6.38 2.42-1.92 6.69-4.29 9.5-5.27 3.7-1.29 6.76-1.62 11.11-1.22z"/>
				<path id="Path 1" fill-rule="evenodd" class="s0" d="m381.75 130.04c2.34-0.02 5.6 0.64 7.25 1.46 1.65 0.82 3.92 2.74 5.04 4.25 1.12 1.51 2.29 4.1 2.61 5.75 0.34 1.77-0.07 4.43-1 6.5-0.87 1.93-2.72 4.06-4.11 4.75-1.4 0.69-3.55 1.26-4.79 1.27-1.24 0.01-2.82-0.56-3.52-1.25-0.69-0.7-1.26-1.61-1.25-2.02 0.01-0.41 0.92-0.97 2.02-1.25 1.1-0.27 2.28-1.29 2.62-2.25 0.34-0.96 0.37-2.65 0.07-3.75-0.31-1.1-1.71-2.56-3.12-3.25-2.11-1.03-3.2-0.98-6.07 0.25-1.98 0.85-4.15 2.8-5 4.5-0.82 1.65-1.51 4.24-1.53 5.75-0.01 1.51 1 4.3 2.25 6.19 1.25 1.9 3.85 4.37 5.78 5.5 2.6 1.52 5.05 2.01 9.5 1.9 4.19-0.11 9.31-1.36 17-4.14 6.05-2.2 14.49-4.71 18.75-5.59 4.26-0.89 12.14-1.61 17.5-1.62 5.61 0 12.3 0.66 15.75 1.56 3.3 0.85 8.02 2.75 10.5 4.21 2.48 1.46 6.07 4.08 8 5.82 1.93 1.74 4.8 5.59 6.39 8.54 1.59 2.96 3.17 7.75 3.5 10.64 0.45 3.87 0.28 5.26-0.64 5.25-0.69 0-1.25-0.69-1.25-1.51 0-0.82-1.07-3.64-2.38-6.25-1.3-2.61-4.34-6.52-6.75-8.69-2.4-2.16-7.07-5.19-10.37-6.73-3.3-1.55-8.48-3.32-11.5-3.94-3.26-0.68-9.97-0.93-16.5-0.61-8.91 0.43-13.65 1.3-25 4.63-7.7 2.26-16.48 4.39-19.5 4.73-3.74 0.42-7.34 0.1-11.25-1.01-3.36-0.95-7.27-2.98-9.41-4.88-2.02-1.79-4.48-5.05-5.48-7.25-1-2.2-1.83-5.91-1.84-8.25-0.01-2.34 0.68-5.94 1.54-8 0.85-2.06 2.33-4.85 3.28-6.2 0.95-1.35 3.29-3.02 5.2-3.71 1.9-0.69 5.37-1.28 7.71-1.3z"/>
				<path id="Path 1" fill-rule="evenodd" class="s0" d="m643.07 130.22c4.4 0.22 6.38 0.91 9.44 3.28 2.13 1.65 4.68 4.8 5.66 7 0.98 2.2 1.79 5.57 1.8 7.5 0.01 1.93-0.43 5.19-0.98 7.25-0.59 2.23-2.82 5.58-5.49 8.25-3.35 3.35-5.97 4.92-10.25 6.13-3.96 1.12-7.62 1.45-11.75 1.04-3.3-0.33-10.5-2.01-16-3.74-5.5-1.72-13.26-3.77-17.25-4.53-3.99-0.77-10.96-1.4-15.5-1.41-4.54 0-10.84 0.68-14 1.5-3.16 0.83-8 2.64-10.75 4.01-2.75 1.38-7.03 4.53-9.5 7-2.48 2.47-5.4 6.3-6.5 8.5-1.1 2.2-2 4.68-2 5.5 0 0.82-0.56 1.51-1.25 1.51-0.92 0.01-1.09-1.38-0.64-5.25 0.33-2.89 1.91-7.69 3.5-10.65 1.59-2.97 4.91-7.16 7.39-9.32 2.47-2.16 6.75-4.98 9.5-6.28 2.75-1.3 7.02-2.83 9.5-3.41 2.47-0.58 8.89-1.06 14.25-1.08 5.36-0.01 13.01 0.65 17 1.46 3.99 0.81 12.65 3.34 19.25 5.61 7.83 2.69 13.91 4.17 17.5 4.25 3.7 0.08 6.76-0.53 9.37-1.86 2.2-1.13 4.68-3.49 5.75-5.48 1.04-1.93 1.89-5.19 1.88-7.25 0-2.48-0.79-4.68-2.34-6.5-1.28-1.51-3.53-3.09-5-3.5-1.72-0.49-3.71-0.22-5.66 0.75-1.65 0.82-3 1.95-3 2.5 0 0.55-0.26 1.56-0.57 2.25-0.32 0.69 0.13 2.04 1 3 0.91 1.02 2.4 1.54 3.57 1.25 1.1-0.28 1.99-0.16 1.97 0.25-0.01 0.41-0.8 1.55-1.75 2.53-0.94 0.98-2.73 1.77-3.97 1.75-1.24-0.02-3.6-0.71-5.25-1.53-1.85-0.92-3.4-2.75-4.05-4.75-0.72-2.22-0.73-4.52-0.05-7.25 0.56-2.2 2.04-4.95 3.3-6.11 1.27-1.17 3.2-2.64 4.3-3.28 1.1-0.64 4.51-1.04 7.57-0.89z"/>
				<path id="Path 1" fill-rule="evenodd" class="s0" d="m344.17 163c0.56 0 1.62 2.14 2.37 4.75 0.74 2.61 2.61 6 4.16 7.52 1.88 1.86 4.28 2.98 11.8 4l-3.5 1.76c-1.93 0.97-4.4 2.72-5.5 3.9-1.1 1.17-2.34 2.12-2.75 2.1-0.41-0.02-2.57-1.72-4.8-3.78-2.34-2.17-4.28-5.02-4.61-6.75-0.31-1.65-0.03-5.36 0.63-8.25 0.66-2.89 1.65-5.25 2.2-5.25z"/>
				<path id="Path 1" fill-rule="evenodd" class="s0" d="m680.11 163.85c0.34 0.36 1.14 2.22 1.77 4.15 0.63 1.93 1.13 4.63 1.1 6-0.03 1.38-0.69 3.63-1.47 5-0.78 1.38-2.45 3.05-3.71 3.71-2.2 1.17-2.15 1.22 1.2 1.29 2.05 0.04 4.64-0.78 6.25-1.97 1.51-1.11 3.42-1.81 4.25-1.53 0.87 0.29 1.48 1.66 1.46 3.25-0.04 2.41 1.09 3.44 9.25 8.39 5.11 3.11 13.56 8.7 18.79 12.44 5.23 3.73 13.77 10.16 19 14.29 5.23 4.14 17.63 15.64 27.56 25.57 9.93 9.93 21.63 22.56 25.99 28.06 4.37 5.5 11.25 14.73 15.3 20.5 4.04 5.77 10.84 16.35 15.11 23.5 4.26 7.15 9.54 16.6 11.73 21 2.18 4.4 5.45 11.38 7.26 15.5 2.33 5.3 3.11 8.31 2.67 10.25-0.34 1.51-1.07 2.52-1.62 2.25-0.55-0.27-4.29-7.36-8.31-15.75-4.02-8.39-10.15-20.2-13.62-26.25-3.47-6.05-9.47-15.73-13.32-21.5-3.86-5.77-9.97-14.32-13.58-19-3.62-4.68-11.15-13.68-16.74-20-5.59-6.32-14.17-15.32-19.05-20-4.89-4.68-11.81-11.03-15.39-14.11-3.57-3.09-10.32-8.52-14.99-12.07-4.67-3.54-12.77-9.31-18-12.81-5.23-3.51-11.75-7.69-14.5-9.28-3.17-1.85-5.91-2.75-7.5-2.47-1.59 0.29-3.13-0.22-4.25-1.41-0.96-1.02-1.75-2.53-1.75-3.35 0-0.82-1.13-1.72-2.5-2-1.38-0.27-3.17-0.05-4 0.5-1.13 0.75-2.62 0.13-6-2.5-2.48-1.93-5.29-3.55-6.25-3.61-0.96-0.06 0.27-0.52 2.75-1.01 2.48-0.5 5.51-1.58 6.75-2.39 1.24-0.82 3.49-4.14 5-7.39 1.51-3.24 3.02-5.6 3.36-5.25z"/>
				<path id="Path 1" fill-rule="evenodd" class="s0" d="m444 169.28c10.99 0.23 11.81 0.4 18.5 3.8 4.91 2.5 8.27 5.12 11.25 8.74 2.34 2.85 4.25 5.74 4.26 6.43 0 0.87-2.99 1.47-9.75 1.96-5.37 0.39-15.38 1.86-22.26 3.26-6.87 1.41-17 3.94-22.5 5.63-5.5 1.7-14.27 4.67-19.5 6.62-5.23 1.94-14.9 6.14-21.5 9.32-6.6 3.19-17.4 9.02-24 12.96-6.6 3.93-15.82 9.9-20.5 13.25-4.68 3.35-13.45 10.26-19.5 15.34-6.05 5.08-16.25 14.56-22.66 21.07-6.41 6.51-14.31 14.99-17.56 18.84-3.24 3.85-7.93 9.7-10.42 13-2.49 3.3-7.23 10.05-10.53 15-3.3 4.95-7.82 12.15-10.06 16-2.23 3.85-6.99 12.85-10.57 20-3.58 7.15-8.54 17.95-11.02 24-2.48 6.05-6.34 16.63-8.6 23.5-2.25 6.87-5.42 18.35-7.04 25.5-1.62 7.15-3.3 15.39-3.74 18.3-0.71 4.71-1.19 5.5-4.3 7.11-2.15 1.11-4.4 3.5-5.83 6.2-1.81 3.42-2.26 5.61-2 9.95 0.24 4 1.1 6.74 5.83 13.94l-2.75-0.61c-1.51-0.34-5.11-1.69-8-3-2.96-1.35-7.44-4.68-10.28-7.64-4.37-4.56-5.03-5.78-4.98-9.25 0.03-2.2 0.67-8.73 1.44-14.5 0.76-5.77 3.06-17.7 5.1-26.5 2.05-8.8 5.97-22.75 8.71-31 2.75-8.25 7.47-20.63 10.5-27.5 3.03-6.88 7.32-16.1 9.53-20.5 2.21-4.4 7.5-13.85 11.76-21 4.26-7.15 11.45-18.18 15.98-24.5 4.53-6.32 11.94-16 16.46-21.5 4.53-5.5 14.04-15.89 21.13-23.08 7.1-7.19 18.75-17.92 25.9-23.84 7.15-5.92 19.98-15.4 28.5-21.07 8.52-5.67 21.13-13.26 28-16.86 6.88-3.61 17.11-8.6 22.75-11.1 5.64-2.5 15.76-6.37 22.5-8.59 6.74-2.22 16.3-4.92 21.25-5.98 6.55-1.41 12.14-1.87 20.5-1.7zm-109.08 10.73c0.32 0 1.93 0.9 3.58 1.99 1.65 1.09 4.13 1.98 5.5 1.96 2.38-0.02 2.42 0.06 0.78 1.76-0.95 0.98-1.74 2.34-1.75 3.03-0.02 0.69-0.94 1.73-2.05 2.31-1.1 0.58-2.79 0.98-3.75 0.88-0.95-0.09-2.18-0.13-2.73-0.09-0.55 0.05-6.18 3.38-12.5 7.4-6.32 4.02-16.9 11.39-23.5 16.38-6.6 4.99-16.27 12.88-21.5 17.54-5.23 4.65-15.22 14.51-22.2 21.9-6.99 7.39-16.12 17.7-20.31 22.93-4.18 5.23-12.57 16.93-18.66 26-8.03 11.97-14.05 22.6-21.95 38.75-9.45 19.33-11.08 22.09-12.42 21-0.85-0.69-1.54-1.7-1.53-2.25 0.01-0.55 1.2-3.7 2.65-7 1.44-3.3 5.44-11.63 8.88-18.5 3.44-6.88 9.07-17.23 12.51-23 3.44-5.77 9.44-15 13.33-20.5 3.89-5.5 10.47-14.25 14.64-19.44 4.16-5.19 11.84-13.97 17.06-19.5 5.22-5.54 13.33-13.67 18.01-18.06 4.68-4.4 12.33-11.2 17-15.11 4.67-3.91 13.89-10.88 20.49-15.5 6.6-4.62 15.71-10.53 20.25-13.14 7.44-4.28 8.23-5.03 8.08-7.58-0.09-1.56 0.21-3.14 0.67-3.5 0.46-0.37 1.1-0.67 1.42-0.66z"/>
				<path id="Path 1" fill-rule="evenodd" class="s0" d="m581 169.04c4.67-0.04 12.1 0.61 16.5 1.45 4.4 0.83 12.95 3.03 19 4.88 6.05 1.86 14.15 4.61 18 6.11 3.85 1.51 14.65 6.46 24 11.02 9.35 4.55 22.4 11.74 29 15.97 6.6 4.24 16.5 11.11 22 15.29 5.5 4.17 14.05 11.05 19 15.28 4.95 4.23 15.3 14.18 23 22.11 7.7 7.93 17.98 19.35 22.84 25.38 4.87 6.03 13.49 17.95 19.17 26.47 5.67 8.52 13.73 21.8 17.91 29.5 4.18 7.7 10.26 20.3 13.52 28 3.26 7.7 7.78 19.63 10.04 26.5 2.26 6.88 5.19 16.77 6.5 22 1.32 5.23 3.31 14.45 4.44 20.5 1.12 6.05 2.46 15.73 2.97 21.5 0.92 10.19 0.87 10.61-1.47 14.25-1.33 2.06-4.33 5.15-6.67 6.87-2.34 1.71-5.6 3.68-7.25 4.36-1.65 0.69-4.46 1.53-9.5 2.52l2.52-3.75c1.38-2.06 2.78-5.77 3.12-8.25 0.33-2.52 0.06-6.26-0.62-8.5-0.66-2.2-2.18-5.06-3.37-6.35-1.18-1.28-3.28-2.92-4.65-3.63-2.13-1.1-2.7-2.47-3.83-9.16-0.73-4.32-2.6-13.26-4.16-19.86-1.56-6.6-4.71-17.62-7-24.5-2.3-6.87-6.65-18.35-9.68-25.5-3.02-7.15-7.78-17.27-10.56-22.5-2.79-5.23-8.01-14.45-11.61-20.5-3.6-6.05-9.73-15.45-13.61-20.9-3.88-5.44-11.13-14.67-16.12-20.5-5-5.83-15.12-16.4-22.5-23.49-7.39-7.09-17.03-15.78-21.43-19.31-4.4-3.54-13.85-10.37-21-15.18-7.15-4.82-15.92-10.38-19.5-12.35-3.58-1.97-11-5.82-16.5-8.56-5.5-2.74-13.83-6.55-18.5-8.47-4.67-1.92-14.13-5.32-21-7.56-6.88-2.23-18.13-5.22-25-6.64-6.88-1.43-17.12-2.92-22.76-3.31-5.65-0.41-10.26-1.18-10.27-1.73-0.02-0.55 1.34-2.91 3-5.25 1.67-2.34 5.17-5.69 7.78-7.45 2.61-1.76 7.23-3.99 10.25-4.95 3.33-1.05 8.86-1.77 14-1.81z"/>
				<path id="Path 1" fill-rule="evenodd" class="s0" d="m166.16 358.53c1.29 0.41 3.91 1.28 5.84 1.93 2.53 0.84 4.05 2.27 5.5 5.18 1.81 3.62 2.22 3.9 4.24 2.93 1.23-0.59 2.47-0.73 2.75-0.32 0.28 0.41-0.66 4.01-4.7 15.25l-2.01-3.5c-1.11-1.92-2.76-3.92-3.65-4.43-0.9-0.52-2.81-2.09-4.25-3.5-1.44-1.41-3.18-4.59-3.87-7.07-0.68-2.47-1.45-5.11-1.71-5.87-0.35-1.02 0.11-1.17 1.86-0.6z"/>
				<path id="Path 1" fill-rule="evenodd" class="s0" d="m859.25 358.05c0.41-0.03 0.75 0.06 0.74 0.2-0.01 0.14-0.62 2.27-1.36 4.75-0.74 2.48-1.86 5.51-2.49 6.75-0.63 1.24-2.83 3.3-4.89 4.58-2.06 1.28-4.42 3.76-5.25 5.51-1.49 3.16-1.5 3.17-2.67 0.92-0.64-1.24-1.89-4.51-2.76-7.26-0.88-2.75-1.59-5.34-1.58-5.75 0-0.41 1.13-0.3 2.51 0.25 1.38 0.55 2.61 1 2.75 1.01 0.14 0 1.15-1.6 2.25-3.56 1.48-2.63 3.3-4.05 7-5.45 2.75-1.04 5.34-1.92 5.75-1.95z"/>
				<path id="Path 1" fill-rule="evenodd" class="s0" d="m162 376.1c2.49-0.05 6.06 0.69 7.98 1.65 1.91 0.96 4.51 3.32 5.78 5.25 1.26 1.92 2.28 4.85 2.25 6.5-0.02 1.65-0.89 5.7-1.93 9-1.38 4.36-1.92 5.25-1.99 3.25-0.05-1.51-0.94-4.48-1.98-6.59-1.04-2.12-3.63-5.35-5.75-7.18-2.12-1.83-6.11-4.37-8.86-5.64-2.75-1.28-5.56-2.32-6.25-2.33-0.69-0.01-1.35-0.42-1.48-0.91-0.12-0.5 1.57-1.35 3.75-1.9 2.19-0.55 6.01-1.04 8.48-1.1z"/>
				<path id="Path 1" fill-rule="evenodd" class="s0" d="m860.25 376.04c2.06-0.02 6.01 0.52 8.77 1.21 2.76 0.69 5.01 1.59 5 2-0.01 0.41-0.58 0.75-1.27 0.76-0.69 0.01-3.5 1.05-6.25 2.33-2.75 1.27-6.75 3.85-8.88 5.74-2.13 1.88-4.72 5.11-5.75 7.17-1.03 2.06-1.9 4.76-1.95 6-0.05 1.46-0.73 0.49-1.92-2.75-1.01-2.75-1.88-6.46-1.92-8.25-0.05-1.79 0.71-4.89 1.67-6.89 1.03-2.13 3.2-4.39 5.25-5.45 1.92-1 5.19-1.84 7.25-1.87z"/>
				<path id="Path 1" fill-rule="evenodd" class="s0" d="m144 406.34c4.91 0.26 7.54 0.99 10.75 3 2.34 1.46 5.62 4.57 7.3 6.91 1.67 2.34 3.52 6.05 4.1 8.25 0.58 2.2 0.84 7.38 0.58 11.5-0.26 4.13-1.22 10.88-2.14 15-1.39 6.22-1.48 8.44-0.52 13 0.64 3.03 2.24 7.64 3.55 10.25 1.31 2.61 4.41 6.78 6.88 9.25 2.47 2.48 6.86 5.68 9.75 7.13 2.89 1.45 7.72 2.87 10.75 3.17 3.61 0.35 6.67 0.05 8.9-0.88 1.87-0.78 3.78-2.43 4.25-3.67 0.47-1.24 0.85-3.37 0.85-4.75 0-1.73-0.77-2.81-2.5-3.5-1.37-0.55-2.88-2.01-3.35-3.25-0.47-1.24-0.49-3.82-0.04-5.75 0.44-1.92 1.61-4.09 2.6-4.8 1.53-1.11 1.84-1.04 2.14 0.5 0.19 0.99 1.37 2.93 2.63 4.3 1.26 1.38 3.07 4.08 4.03 6 1.08 2.17 1.56 4.83 1.27 7-0.26 1.93-1.33 4.8-2.38 6.38-1.04 1.59-3.7 3.79-5.9 4.88-2.46 1.23-6.89 2.19-11.5 2.49-5.22 0.35-9.48-0.02-14-1.19-3.57-0.93-8.75-2.75-11.5-4.05-2.75-1.29-7.41-4.53-10.35-7.18-3.51-3.17-6.44-7.06-8.5-11.32-2.74-5.64-3.15-7.53-3.15-14.58 0-7.52 0.25-8.5 3.43-13.52 2.79-4.39 3.51-6.63 3.84-11.91 0.34-5.56 0.06-7-1.95-10-1.29-1.92-4.14-4.34-6.33-5.38-2.58-1.21-5.05-1.66-6.99-1.27-1.65 0.33-4.13 1.77-5.5 3.2-1.44 1.5-2.5 3.79-2.5 5.38 0 1.52 0.68 3.53 1.5 4.46 0.82 0.93 2.51 1.68 3.75 1.65 1.31-0.02 2.71-0.98 3.36-2.29 0.91-1.87 1.25-2 1.98-0.75 0.48 0.83 0.89 2.51 0.89 3.75 0.01 1.24-1.08 3.38-2.43 4.75-1.71 1.74-3.54 2.5-6 2.5-1.95 0-4.92-0.79-6.59-1.75-1.67-0.96-3.91-3.55-4.98-5.75-1.08-2.2-1.96-5.69-1.97-7.75 0-2.06 1-5.85 2.24-8.42 1.24-2.58 3.6-5.7 5.25-6.94 1.65-1.24 4.13-2.74 5.5-3.32 1.38-0.59 5.43-0.91 9-0.73z"/>
				<path id="Path 1" fill-rule="evenodd" class="s0" d="m880.5 406.03c2.2 0 5.8 0.55 8 1.23 2.2 0.67 5.58 2.84 7.5 4.82 1.92 1.98 4.06 5.36 4.73 7.51 0.68 2.15 1.24 5.26 1.24 6.91 0 1.65-0.89 4.91-1.98 7.25-1.2 2.55-3.19 4.85-4.99 5.75-1.65 0.83-4.46 1.52-6.25 1.53-1.79 0.02-4.49-0.88-6-2-1.72-1.27-2.75-2.96-2.75-4.53 0-1.37 0.27-3.29 0.61-4.25 0.54-1.57 0.75-1.51 2 0.5 0.84 1.36 2.38 2.25 3.89 2.25q2.5-0.01 4.16-2.75c1.27-2.09 1.44-3.47 0.73-5.75-0.59-1.9-2.21-3.66-4.41-4.8-2.35-1.21-4.62-1.61-6.98-1.22-1.92 0.32-4.74 1.47-6.25 2.55-1.51 1.08-3.48 3.43-4.37 5.22-0.89 1.79-1.57 5.38-1.5 8 0.08 3.37 1.21 6.86 3.87 12 3.42 6.61 3.75 7.96 3.75 15.25 0 6.44-0.47 8.97-2.44 13-1.34 2.75-4.94 7.49-8 10.53-3.06 3.04-8.15 6.75-11.31 8.25-3.16 1.5-8.79 3.44-12.5 4.32-4.17 0.98-9.43 1.44-13.75 1.19-4.36-0.25-8.51-1.17-11-2.43-2.2-1.12-5.03-3.57-6.28-5.45-1.25-1.87-2.26-4.87-2.25-6.66 0.02-1.79 0.77-4.71 1.68-6.5 0.91-1.79 3.05-4.95 4.75-7.03 1.71-2.08 3.33-3.78 3.6-3.78 0.27 0 1.06 1.14 1.75 2.53 0.69 1.39 1.25 4.11 1.25 6.03 0 2.78-0.62 3.91-3 5.5-2.53 1.69-2.96 2.57-2.75 5.65 0.17 2.52 1.03 4.25 2.75 5.59 1.84 1.43 4.09 1.94 8.5 1.94 4.85 0 7.34-0.67 13-3.48 4.68-2.33 8.59-5.26 11.81-8.84 2.68-2.98 5.68-7.69 6.75-10.61 1.18-3.2 1.94-7.79 1.94-11.75 0-3.57-0.94-10.44-2.1-15.25-1.49-6.22-1.9-10.19-1.43-13.75 0.36-2.75 1.46-6.8 2.44-9 0.97-2.2 3.08-5.54 4.68-7.42 1.6-1.88 5.16-4.47 7.91-5.74 2.75-1.28 6.8-2.32 9-2.31zm-47.93 45.97c-0.29 0.83-0.17 3.75 0.27 6.5l0.81 5c0.95-8.29 0.83-11.22 0.34-11.85-0.64-0.84-1.03-0.74-1.42 0.35z"/>
				<path id="Path 1" fill-rule="evenodd" class="s0" d="m132.04 469.3l3.33 6.6c2.22 4.41 5.45 8.59 9.74 12.6 3.53 3.3 9.57 7.66 13.41 9.68 3.84 2.02 10.58 4.69 14.98 5.93 5.72 1.61 10.85 2.27 18 2.32 7.48 0.05 11.38-0.42 15.5-1.87 3.46-1.22 7.27-3.64 15.01-11.06l4.75 4.45c2.61 2.44 8.34 6.14 12.74 8.2 4.4 2.07 9.47 4.12 11.27 4.55 1.8 0.44 3.28 1.03 3.28 1.3 0 0.27-1.48 0.85-3.28 1.28-1.8 0.43-6.87 2.52-11.27 4.65-4.51 2.19-10.07 5.88-17.5 13.07l-3.35-3.75c-1.84-2.06-5.78-4.88-8.75-6.25-4.94-2.29-6.55-2.5-18.9-2.45-12.41 0.04-14.15 0.29-21.51 3-4.41 1.62-10.68 4.53-13.94 6.45-3.25 1.92-8.44 5.98-11.51 9-3.08 3.02-6.97 8.2-11.71 17.5l-2.89-5.5c-1.59-3.02-5.15-7.79-7.92-10.59-2.76-2.8-8.17-7.15-12.02-9.67-3.85-2.51-10.15-5.92-14-7.58-3.85-1.66-11.05-4.18-16-5.6-4.95-1.43-10.12-2.6-11.5-2.61-1.86-0.01-2.11-0.22-1-0.83 0.83-0.45 4.65-1.56 8.5-2.46 3.85-0.9 11.05-3.22 16-5.17 4.95-1.94 12.15-5.41 16-7.72 3.85-2.3 9.7-6.91 13.01-10.23 3.3-3.32 7.24-8.56 8.77-11.64zm-2.3 31.45c-0.85 0.96-4.18 3.09-7.4 4.72-3.21 1.64-9.67 3.94-14.35 5.11l-8.5 2.13c6.98 1.24 12.38 3.29 16.5 5.36 4.56 2.28 9.17 5.56 11.75 8.34l4.25 4.59c5.17-5.81 9.79-9.17 13.59-11.22 3.8-2.04 10.06-4.39 13.91-5.23 3.85-0.83 9.25-1.56 12-1.62 3.81-0.08 2.13-0.54-7-1.93-6.6-1.01-14.47-2.75-17.5-3.87-3.02-1.12-7.41-3.41-9.75-5.09-2.33-1.67-4.63-3.04-5.1-3.04-0.47 0-1.55 0.79-2.4 1.75zm84.75 13.41c3.3 1.09 6.45 2.01 7 2.03 0.55 0.03 3.03-0.9 5.5-2.05l4.5-2.1-23 0.14z"/>
				<path id="Path 1" fill-rule="evenodd" class="s0" d="m891.3 470.16l2.61 4.67c1.44 2.57 4.41 6.82 6.6 9.46 2.19 2.63 6.47 6.53 9.49 8.67 3.03 2.13 9.78 5.91 15 8.4 5.23 2.49 13.55 5.64 18.5 7.01 4.95 1.36 10.35 2.79 12 3.18 2.71 0.63 2.38 0.83-3.5 2.07-3.57 0.76-10.1 2.55-14.5 3.98-4.4 1.43-10.7 3.96-14 5.62-3.3 1.66-8.7 4.92-12 7.25-3.3 2.33-8.02 6.49-10.5 9.25-2.47 2.75-5.68 7.43-9.74 15.78l-1.31-3.5c-0.73-1.92-2.37-5.08-3.65-7-1.28-1.92-4.46-5.69-7.06-8.36-2.61-2.68-7.66-6.6-11.24-8.72-3.57-2.12-9.87-5.1-14-6.61-6.78-2.49-8.79-2.76-21-2.78-12.7-0.03-13.84 0.13-19.25 2.72-3.16 1.51-6.99 4.29-11.25 9.59l-5-4.52c-2.75-2.5-8.6-6.25-13-8.34-4.4-2.09-9.57-4.1-11.5-4.46-1.92-0.36-3.05-1.01-2.5-1.43 0.55-0.42 3.25-1.57 6-2.57 2.75-1 7.48-3.04 10.5-4.54 3.03-1.51 7.75-4.75 15.5-11.68l4.5 4.68c3.1 3.22 6.21 5.27 10 6.58 4.05 1.41 8.27 1.91 16 1.91 8.19 0.01 12.15-0.5 18-2.32 4.13-1.28 10.64-3.98 14.48-5.99 3.84-2.01 9.69-6.17 13-9.25 3.83-3.55 7.26-7.98 9.42-12.17zm-4.3 31.9c-2.47 1.67-6.75 3.86-9.5 4.88-2.75 1.02-9.72 2.61-15.5 3.52-5.77 0.92-11.17 1.82-12 1.99-0.82 0.18 0.3 0.37 2.5 0.43 2.2 0.06 6.25 0.52 9 1.04 2.75 0.51 7.48 1.84 10.5 2.95 3.03 1.11 7.98 3.86 11 6.12 3.03 2.26 6.29 5.33 7.24 6.81 0.96 1.49 1.75 2.14 1.75 1.46 0.01-0.69 1.75-3.17 3.87-5.5 2.26-2.51 6.89-5.78 11.25-7.95 4.06-2.04 9.64-4.08 12.39-4.55l5-0.85c-10.07-2.01-15.7-3.69-19-5.03-3.3-1.34-7.69-3.78-9.75-5.41-2.06-1.63-3.86-2.96-4-2.95-0.14 0.01-2.27 1.38-4.75 3.04zm-89 12.71c4.37 2.23 5.81 2.56 7 1.63 0.83-0.65 3.75-1.86 6.5-2.68l5-1.51-24-0.24z"/>
				<path id="Path 1" fill-rule="evenodd" class="s0" d="m196 525.49q7.5 0.51 11.88 2.76c2.69 1.38 5.11 3.6 6.26 5.75 1.03 1.92 1.87 4.85 1.87 6.5 0 1.65-0.79 4.42-1.76 6.15-0.96 1.73-3.25 4.88-5.08 7-2.14 2.48-3.65 3.49-4.24 2.85-0.51-0.55-1.26-3.34-1.67-6.2-0.74-5.03-0.67-5.22 1.99-6.25 1.77-0.67 2.97-2.03 3.36-3.8 0.33-1.51 0.33-3.76 0-5-0.34-1.24-2.07-2.99-3.86-3.88-2.36-1.19-4.89-1.5-9.25-1.14-3.42 0.28-7.93 1.48-10.5 2.8-2.47 1.26-6.67 4.37-9.33 6.89-2.66 2.52-5.97 6.6-7.37 9.08-1.39 2.48-3.15 6.75-3.91 9.5-0.75 2.75-1.37 6.8-1.38 9-0.01 2.2 0.89 7.15 1.99 11 1.1 3.85 2 9.81 2 13.25 0 3.44-0.7 7.94-1.55 10-0.85 2.06-2.76 5.49-4.25 7.62-1.48 2.13-4.73 5.06-7.2 6.5-3.64 2.13-5.75 2.62-11 2.59-4.71-0.02-7.67-0.64-10.75-2.25-2.34-1.21-5.39-3.9-6.79-5.96-1.4-2.06-2.81-5.77-3.13-8.25-0.32-2.48-0.11-6.08 0.48-8 0.59-1.92 2.68-4.96 4.63-6.75 2.77-2.53 4.44-3.25 7.56-3.25 2.93 0 4.67 0.67 6.5 2.5 1.38 1.37 2.49 3.51 2.48 4.75 0 1.24-0.41 2.92-0.9 3.75-0.72 1.23-0.99 1.09-1.48-0.75-0.49-1.82-1.21-2.2-3.84-2-2.51 0.19-3.56 0.93-4.62 3.25-1.2 2.61-1.17 3.42 0.24 6.25 1.15 2.3 2.72 3.58 5.37 4.37 3.21 0.96 4.44 0.81 8.5-1 3.57-1.59 5.25-3.11 6.75-6.12 1.11-2.22 2-6 2-8.5 0-3.24-1.05-6.52-3.75-11.75-3.42-6.61-3.75-7.96-3.75-15.25 0-6.54 0.47-9 2.6-13.5 1.44-3.02 4.87-7.75 7.63-10.5 2.76-2.75 7.21-6.22 9.89-7.71 2.69-1.49 8.25-3.63 12.38-4.76 5.7-1.56 9.3-1.93 15-1.54z"/>
				<path id="Path 1" fill-rule="evenodd" class="s0" d="m833 525.53c3.58 0.24 9.88 1.59 14 3.01 4.13 1.41 9.81 4.24 12.63 6.27 2.82 2.03 6.79 5.72 8.82 8.19 2.02 2.48 4.6 6.98 5.71 10 1.56 4.21 1.94 7.14 1.61 12.5-0.35 5.81-1.08 8.19-4.3 14-2.93 5.28-3.88 8.1-3.85 11.5 0.01 2.48 0.78 5.96 1.7 7.75 0.93 1.79 3.14 4.26 4.93 5.5 2.15 1.48 4.72 2.25 7.58 2.25 3.63 0 4.81-0.53 7.25-3.25 1.61-1.79 2.92-4.37 2.92-5.75 0-1.37-0.67-3.17-1.5-4-0.83-0.83-2.85-1.5-4.5-1.5-1.78 0-3.2 0.61-3.5 1.5-0.27 0.83-0.95 1.5-1.5 1.5-0.55 0-1-1.35-1-3 0-1.84 0.95-3.97 2.45-5.5 1.71-1.74 3.54-2.5 6-2.5 1.95 0 4.56 0.47 5.8 1.04 1.24 0.57 3.37 2.68 4.75 4.68 2 2.91 2.5 4.86 2.5 9.78 0 5.03-0.5 6.91-2.75 10.32-1.56 2.38-4.59 5.14-7 6.39-3.08 1.61-6.04 2.23-10.75 2.25-5.31 0.03-7.37-0.46-11.25-2.71-2.65-1.53-5.98-4.63-7.54-7-1.54-2.34-3.34-5.49-4-7-0.67-1.51-1.21-5.67-1.21-9.25 0-3.58 0.96-10.21 2.12-14.75 1.6-6.22 1.97-9.73 1.48-14.25-0.36-3.3-1.76-8.36-3.12-11.25-1.37-2.89-4.62-7.55-7.23-10.36-2.61-2.81-6.55-6.16-8.75-7.45-2.2-1.28-6.48-3-9.5-3.82-3.98-1.08-6.54-1.23-9.25-0.55-2.06 0.51-4.65 1.83-5.75 2.93-1.1 1.1-2 3.13-2 4.5 0 1.44 1.27 3.77 3 5.5 2.58 2.58 2.92 3.53 2.45 6.75-0.31 2.06-0.76 4.54-1 5.5-0.25 0.96-1.01 1.75-1.7 1.74-0.69 0-2.15-1.43-3.25-3.16-1.1-1.74-3.01-4.78-4.23-6.75-1.23-1.97-2.24-5.04-2.25-6.83-0.01-1.79 0.65-4.6 1.48-6.25 0.83-1.65 2.96-3.89 4.75-4.97 1.79-1.09 5.27-2.42 7.75-2.96 2.48-0.53 7.42-0.78 11-0.54z"/>
				<path id="Path 1" fill-rule="evenodd" class="s0" d="m196.73 536.04c2.96-0.04 3.11 0.11 1.81 1.71-0.78 0.96-2.12 3.44-2.98 5.5-0.86 2.06-1.55 5.66-1.53 8 0.02 2.51 0.94 5.83 2.25 8.11 1.22 2.12 3.79 4.66 5.72 5.64 3.41 1.73 3.53 2 4.81 10.64 0.71 4.87 2.59 14.26 4.16 20.86 1.58 6.6 4.87 18.08 7.32 25.5 2.45 7.42 7.02 19.58 10.16 27 3.13 7.42 7.98 17.78 10.78 23 2.8 5.23 7.31 13.33 10.04 18 2.73 4.67 7.9 12.78 11.5 18 3.6 5.23 9.96 13.78 14.12 19 4.17 5.23 14.33 16.29 22.59 24.59 8.26 8.31 19.97 19.04 26.02 23.85 6.05 4.82 16.85 12.65 24 17.41 7.15 4.76 19.75 12.1 28 16.32 8.25 4.21 19.5 9.45 25 11.64 5.5 2.18 15.4 5.65 22 7.71 6.6 2.05 16.27 4.61 21.5 5.67 5.23 1.07 14.9 2.57 21.5 3.35 6.6 0.77 12.11 1.64 12.25 1.93 0.14 0.29-0.42 1.88-1.25 3.53-0.82 1.65-3.86 4.78-6.75 6.96-2.89 2.18-7.95 4.94-11.25 6.13-4.57 1.65-8.38 2.18-16 2.23-5.5 0.04-12.7-0.51-16-1.21-3.3-0.7-10.73-2.63-16.5-4.28-5.77-1.66-16.57-5.47-24-8.48-7.42-3.01-19.57-8.64-27-12.52-7.42-3.88-19.12-10.77-26-15.3-6.87-4.53-17-11.69-22.5-15.9-5.5-4.22-14.9-12.05-20.89-17.4-5.99-5.35-15.66-14.92-21.5-21.27-5.83-6.35-14.03-15.8-18.2-21-4.18-5.2-10.46-13.51-13.97-18.46-3.5-4.95-9.49-14.17-13.3-20.5-3.81-6.33-9.74-17.12-13.17-24-3.44-6.87-8.18-17-10.53-22.5-2.35-5.5-6.46-16.52-9.13-24.5-2.67-7.97-6.18-19.9-7.81-26.5-1.62-6.6-3.82-17.4-4.89-24-1.07-6.6-2.2-15.26-2.53-19.25-0.49-6.07-0.27-7.78 1.36-10.5 1.06-1.79 3.65-4.89 5.75-6.89 2.09-2 5.61-4.57 7.81-5.71 2.2-1.13 5.45-2.08 7.23-2.11z"/>
				<path id="Path 1" fill-rule="evenodd" class="s0" d="m822.5 535.92l3.5 0.06c1.92 0.04 5.3 0.87 7.5 1.85 2.2 0.98 5.7 3.1 7.77 4.72 2.07 1.62 4.84 4.53 6.15 6.45 2.31 3.4 2.35 3.82 1.46 14.5-0.51 6.05-1.39 13.92-1.96 17.5-0.56 3.58-2.18 11.67-3.58 18-1.41 6.33-4.09 16.56-5.95 22.75-1.86 6.19-5.9 17.66-8.96 25.5-3.06 7.84-9.36 21.67-13.99 30.75-4.64 9.08-11.47 21.33-15.18 27.24-3.72 5.91-9.55 14.69-12.97 19.5-3.42 4.82-8.73 11.91-11.82 15.76-3.08 3.85-9.96 11.89-15.28 17.87-5.33 5.97-15.31 16.03-22.19 22.34-6.87 6.31-18.35 15.9-25.5 21.3-7.15 5.4-18.85 13.51-26 18.01-7.15 4.51-19.75 11.47-28 15.48-8.25 4.01-20.51 9.36-27.25 11.9-6.74 2.53-16.41 5.69-21.5 7.02-5.09 1.33-13.08 2.94-17.75 3.58-6.55 0.9-10.34 0.89-16.5-0.04-4.4-0.66-10.02-2.1-12.5-3.18-2.48-1.09-6.03-3.17-7.89-4.63-1.87-1.46-4.68-4.56-6.25-6.9-1.97-2.93-2.47-4.38-1.61-4.67 0.69-0.22 5.41-0.67 10.5-1 5.09-0.32 14.76-1.71 21.5-3.09 6.74-1.37 17.42-4.12 23.75-6.1 6.33-1.98 16-5.39 21.5-7.58 5.5-2.19 16.75-7.42 25-11.64 8.25-4.21 20.85-11.56 28-16.34 7.15-4.78 17.95-12.61 24-17.41 6.05-4.8 17.53-15.3 25.51-23.33 7.99-8.02 17.93-18.86 22.09-24.09 4.17-5.22 9.82-12.65 12.55-16.5 2.74-3.85 8.21-12.29 12.16-18.75 3.96-6.46 10.56-18.5 14.69-26.75 4.13-8.25 9.25-19.39 11.38-24.75 2.13-5.36 5.55-14.92 7.58-21.25 2.04-6.33 4.85-16.22 6.25-22 1.39-5.77 3.27-15.08 4.16-20.68 1.56-9.72 1.78-10.28 5.04-12.5 1.87-1.28 4.26-3.44 5.31-4.82 1.05-1.37 2.13-4.58 2.41-7.13 0.28-2.55 0.05-6.15-0.52-8-0.56-1.85-2.28-4.62-3.82-6.16zm19.48 123.08c0.56 0 1.45 0.79 1.97 1.75 0.7 1.3-0.27 4.59-3.76 12.75-2.58 6.05-7.89 16.85-11.81 24-3.91 7.15-9.72 17.05-12.91 22-3.2 4.95-8.72 13.05-12.29 18-3.56 4.95-10.79 14.17-16.06 20.5-5.27 6.32-14.54 16.42-20.6 22.44-6.06 6.03-15.52 14.81-21.02 19.52-5.5 4.71-13.6 11.32-18 14.67-4.4 3.35-13.62 9.77-20.5 14.26-6.87 4.49-13.28 8.38-14.25 8.64-1.24 0.33-1.75 1.48-1.75 3.97 0 2.13-0.48 3.5-1.25 3.49-0.68 0-3.27-1.06-10.25-4.69l2.5-3.2c1.63-2.09 3.03-2.99 4-2.57 0.83 0.35 2.63 0.09 4-0.58 1.38-0.67 8.35-5.08 15.5-9.8 7.15-4.73 18.52-12.99 25.25-18.37 6.74-5.38 15.96-13.27 20.49-17.53 4.53-4.26 11.98-11.58 16.55-16.25 4.57-4.68 13.6-15.03 20.05-23 6.46-7.98 15.14-19.68 19.3-26 4.15-6.33 10.92-17.58 15.05-25 4.13-7.43 9.66-18.23 12.29-24 2.62-5.78 5.16-11.51 5.63-12.75 0.47-1.24 1.31-2.25 1.87-2.25z"/>
				<path id="Path 1" fill-rule="evenodd" class="s0" d="m174.5 621.71l1.69 5.4c0.93 2.96 1.72 6.4 1.75 7.64 0.03 1.24-0.84 4.05-1.94 6.25-1.15 2.3-3.38 4.72-5.25 5.69-1.79 0.93-5.5 1.69-8.25 1.69-2.75 0-6.8-0.58-13-2.57l8-3.79c4.67-2.21 9.35-5.3 11.25-7.41 1.79-1.98 3.81-5.7 4.5-8.25z"/>
				<path id="Path 1" fill-rule="evenodd" class="s0" d="m849.22 621.5l1.81 5.5c1.35 4.11 3.04 6.6 6.64 9.83 2.88 2.57 7.26 5.19 16.83 8.6l-6 1.85c-3.78 1.17-7.48 1.65-10 1.3-2.2-0.3-5.01-1.23-6.25-2.06-1.24-0.84-3.21-3.43-4.38-5.77-2.11-4.2-2.12-4.34-0.4-11.75z"/>
				<path id="Path 1" fill-rule="evenodd" class="s0" d="m845.22 641.5l1.39 3.25c0.78 1.82 3.37 4.57 5.89 6.25 2.94 1.96 4.7 3.95 5.08 5.75 0.32 1.51 1.01 4.1 1.52 5.75 0.51 1.65 0.93 3.11 0.92 3.25-0.01 0.14-1.26-0.04-2.77-0.39-1.51-0.35-4.33-1.43-6.25-2.39-1.92-0.95-4.17-2.93-5-4.38-0.83-1.46-1.84-2.63-2.25-2.62-0.41 0.02-0.98 0.48-1.25 1.03-0.28 0.55-1.17 0.77-2 0.5-0.83-0.27-1.52-1.19-1.54-2.03-0.02-0.84 1.38-4.33 3.11-7.75z"/>
				<path id="Path 1" fill-rule="evenodd" class="s0" d="m178.88 642.97c0.34-0.02 1.97 2.96 3.62 6.61 2.77 6.14 2.87 6.71 1.25 7.53-1.58 0.8-1.09 2.31 4.9 15.14 3.66 7.84 9.33 19.2 12.6 25.25 3.27 6.05 10.15 17.3 15.28 25 5.14 7.7 14.09 19.96 19.9 27.25 5.82 7.29 16.08 18.79 22.82 25.57 6.74 6.78 16.3 15.84 21.25 20.13 4.95 4.3 14.4 11.85 21 16.78 6.6 4.93 16.95 12.05 23 15.83 7.51 4.69 11.64 6.69 13 6.32 1.45-0.4 2.72 0.37 7.23 6.12l-5.45 2.5c-4.71 2.16-5.57 2.3-6.37 1-0.51-0.83-0.7-2.51-0.42-3.75 0.39-1.71-0.03-2.41-1.74-2.93-1.24-0.37-9.01-5.21-17.27-10.75-8.27-5.54-20.64-14.55-27.5-20.02-6.87-5.47-19.47-16.94-28.01-25.5-8.54-8.55-20.02-21.18-25.5-28.05-5.49-6.88-13.17-17.23-17.08-23-3.9-5.78-9.91-15.23-13.36-21-3.45-5.78-8.7-15.34-11.65-21.25-2.96-5.91-6.74-14.24-8.41-18.5-2.79-7.15-2.91-7.93-1.5-10 0.84-1.24 1.19-2.49 0.78-2.78-0.41-0.29-1.09-0.51-1.5-0.5-0.41 0.02-1.65 1.61-2.75 3.53-1.61 2.81-3.03 3.79-7.25 4.98-2.89 0.82-5.33 1.38-5.43 1.25-0.1-0.12 0.67-2.93 1.71-6.23 1.55-4.92 2.62-6.5 5.93-8.75 2.22-1.51 4.55-3.88 5.17-5.25 0.62-1.38 1.41-2.51 1.75-2.53z"/>
				<path id="Path 1" fill-rule="evenodd" class="s0" d="m512.25 784c0.5 0 1.13 1.69 1.39 3.75 0.26 2.06 2.44 7.8 4.82 12.75 2.82 5.84 6.14 10.85 9.44 14.25 5.1 5.25 5.1 5.25 2.85 6.66-1.24 0.77-3.91 3.81-5.94 6.75-2.03 2.94-4.46 8.04-5.41 11.34-1.09 3.8-1.71 9.3-1.67 15 0.04 5.61 0.81 11.82 2.04 16.5 1.09 4.13 3.44 10.42 5.22 14 1.78 3.58 4.88 8.68 6.88 11.35 1.99 2.67 5.97 6.49 14.03 12.15l-2.6 1.5c-1.42 0.83-5.25 4.42-8.51 8-4.1 4.5-7.58 9.88-11.33 17.5-2.97 6.05-6.55 15.05-7.95 20-1.4 4.95-2.54 10.01-2.53 11.25 0.01 1.24-0.43 2.48-0.98 2.75-0.56 0.28-1.26-1.59-1.6-4.25-0.33-2.61-1.68-8.46-3-13-1.32-4.54-4.37-12.19-6.78-17-2.4-4.81-6-10.89-8-13.5-1.99-2.61-5.25-6.21-7.25-8-2-1.79-4.59-3.74-5.75-4.34-2.03-1.05-1.95-1.2 1.82-3.5 2.16-1.33 6.1-4.89 8.75-7.91 2.65-3.02 6.37-8.65 8.27-12.5 1.9-3.85 4.44-10.83 5.63-15.5 1.76-6.91 2.07-10.38 1.68-18.5-0.38-7.6-1.12-11.56-3.09-16.5-1.79-4.47-4.01-7.82-11.68-15l5.25-5.77c2.89-3.18 6.91-9.14 8.95-13.25 2.03-4.11 4.25-9.62 4.92-12.23 0.67-2.61 1.63-4.75 2.13-4.75zm-0.53 25c-0.31 0.83-0.87 3.52-1.25 6-0.38 2.48-0.71 5.63-0.73 7-0.02 1.38 0.59 7.23 1.36 13 1.17 8.77 1.44 9.68 1.64 5.5 0.14-2.75 0.68-8.38 1.2-12.5 0.7-5.52 0.61-9.22-0.36-14-0.72-3.58-1.56-5.83-1.86-5zm0.04 59c-0.4 1.38-0.74 4.41-0.75 6.75 0 2.34-0.75 7.51-1.65 11.5-0.9 3.99-2.52 9.27-3.59 11.75-1.07 2.48-2.81 5.74-3.86 7.25l-1.91 2.75c5.53 8.14 7.97 13.42 8.99 17 1.02 3.58 2.19 7.85 2.59 9.5 0.7 2.83 0.78 2.72 1.52-2 0.43-2.75 1.66-7.02 2.72-9.5 1.06-2.48 3.57-6.98 5.58-10 3.17-4.77 3.46-5.7 2.24-7-0.78-0.83-2.54-3.75-3.91-6.5-1.38-2.75-3.28-7.48-4.22-10.5-0.94-3.02-2.01-9.55-2.37-14.5-0.45-6.23-0.88-8.23-1.38-6.5z"/>
				<path id="Path 1" fill-rule="evenodd" class="s0" d="m480 823.79c1.93 0.26 4.63 1.05 6 1.75 1.38 0.7 3.46 2.33 4.63 3.61 1.18 1.29 2.81 3.7 3.63 5.35 0.82 1.65 2 5.36 2.62 8.25 0.62 2.89 1.12 7.39 1.13 10 0 2.61-0.49 7.45-1.09 10.75-0.6 3.3-2.47 8.92-4.17 12.5-2.03 4.29-5.31 8.74-9.66 13.09-4.87 4.88-8.09 7.16-12.34 8.75-3.16 1.19-7.89 2.17-10.5 2.18-2.61 0.01-6.32-0.51-8.25-1.14-1.93-0.64-4.96-2.22-6.75-3.52-1.79-1.3-4.15-4.16-5.25-6.36-1.1-2.2-2-4.67-2-5.5 0-1.3 0.44-1.27 3.25 0.17 1.79 0.92 6.18 1.87 9.75 2.1 4.98 0.33 7.79-0.07 12-1.69 3.02-1.16 7.64-3.68 10.25-5.59 2.61-1.92 7.02-6.53 9.8-10.24 3.25-4.34 5.76-9.07 7.02-13.25 1.09-3.58 1.96-8.19 1.95-10.25-0.01-2.06-0.64-5.21-1.39-7-0.76-1.79-2.44-4.21-3.75-5.39-1.31-1.18-4.18-2.46-6.38-2.85-2.2-0.4-6.39-0.78-14.61-1.01l2.48-2.2c1.36-1.22 3.75-2.38 5.3-2.6 1.56-0.22 4.4-0.18 6.33 0.09z"/>
				<path id="Path 1" fill-rule="evenodd" class="s0" d="m548 823.66c1.92 0.29 4.74 1.27 6.26 2.18 1.52 0.91 2.76 1.89 2.75 2.16 0 0.28-1.47 0.59-3.26 0.69-1.79 0.11-5.99 0.56-9.34 1-3.35 0.45-6.8 1.41-7.67 2.14-0.87 0.73-2.37 3.43-3.33 6-1.27 3.39-1.6 6.32-1.21 10.67 0.32 3.51 1.65 8.28 3.22 11.5 1.48 3.03 4.23 7.53 6.12 10 1.89 2.48 5.58 6.17 8.2 8.22 2.62 2.04 7.12 4.63 10.01 5.75 2.89 1.11 7.61 2.04 10.5 2.05 2.89 0.01 6.83-0.51 8.75-1.15 1.92-0.63 4.3-1.88 5.28-2.76 1.65-1.48 1.78-1.47 1.75 0.14-0.02 0.96-0.87 3.44-1.9 5.5-1.03 2.06-3.39 5.12-5.25 6.81-1.86 1.68-5.18 3.65-7.38 4.37-2.3 0.77-6.55 1.15-10 0.91-3.31-0.22-8.02-1.38-10.5-2.58-2.48-1.2-6.3-3.69-8.5-5.55-2.2-1.85-5.78-6.04-7.95-9.29-2.17-3.26-5.02-9.29-6.34-13.42-2.02-6.37-2.32-9.01-1.99-17.5 0.3-7.41 0.97-11.29 2.58-15 1.2-2.75 3.65-6.48 5.44-8.28 1.79-1.81 4.84-3.69 6.76-4.18 1.92-0.49 5.08-0.66 7-0.38z"/>
				<path id="Path 1" fill-rule="evenodd" class="s0" d="m540.63 842.74c0.75 2.07 2.6 5.53 4.12 7.69 1.51 2.16 5.45 5.67 8.75 7.8 3.3 2.12 8.92 4.8 12.5 5.93 4.87 1.55 9.14 2.07 17 2.07 5.83-0.01 13.62-0.7 17.5-1.57 3.85-0.85 11.5-2.97 17-4.7 5.5-1.72 12.7-3.37 16-3.66 3.3-0.29 7.8-0.04 10 0.54 2.2 0.59 5.8 2.35 8 3.91 2.2 1.57 4.85 4.63 5.9 6.8 1.04 2.17 2.1 5.75 2.35 7.95 0.27 2.31-0.19 5.69-1.08 8-0.85 2.2-3.15 5.46-5.11 7.25-1.96 1.79-5.36 3.7-7.56 4.25-2.78 0.7-5.3 0.66-8.25-0.12-2.52-0.67-5.38-2.4-7.03-4.25-1.53-1.72-3.03-4.26-3.32-5.63-0.3-1.38 0.17-4.19 1.03-6.25 0.86-2.06 2.47-4.2 3.57-4.75 1.1-0.55 3.13-1 4.5-1 1.38 0 3.4 0.9 4.5 2 1.1 1.1 1.77 2.45 1.5 3-0.27 0.55-1.29 0.74-2.25 0.42-1-0.33-2.29 0.09-3 1-0.88 1.12-0.96 2.17-0.25 3.58 0.55 1.1 2.13 2.45 3.5 3 1.84 0.74 3.43 0.6 6-0.5 2.09-0.9 4.15-2.81 5.12-4.75 1.11-2.22 1.43-4.52 1.02-7.25-0.33-2.2-1.62-5.07-2.87-6.38-1.25-1.31-3.73-2.99-5.52-3.75-1.79-0.75-5.05-1.37-7.25-1.37-2.2 0-10.86 2.24-19.25 4.97-8.39 2.74-18.17 5.43-21.75 6-3.58 0.56-9.65 1.02-13.5 1.03-3.85 0.01-9.48-0.44-12.5-1-3.02-0.57-8.65-2.53-12.5-4.36-3.94-1.87-8.89-5.26-11.31-7.74-2.51-2.56-5.13-6.6-6.25-9.65-1.07-2.89-2.02-6.52-2.11-8.08-0.09-1.56 0.2-3.14 0.64-3.51 0.44-0.37 1.41 1.01 2.16 3.08z"/>
				<path id="Path 1" fill-rule="evenodd" class="s0" d="m351.25 840.06c0.41-0.03 0.98 0.39 1.25 0.94 0.27 0.55 2.64 2.36 10 7.03l-3.5-0.01c-1.93-0.01-4.96 0.89-6.75 1.98-1.79 1.1-3.99 3.46-4.9 5.25-0.91 1.79-1.98 4.38-3.1 8.25l-1.19-3c-0.65-1.65-1.44-4.8-1.75-7-0.32-2.21-0.07-5.01 0.56-6.25 0.62-1.24 2.82-3.35 4.88-4.69 2.06-1.34 4.09-2.47 4.5-2.5z"/>
				<path id="Path 1" fill-rule="evenodd" class="s0" d="m485.23 840.6c0.53 0.28 0.93 1.28 0.88 2.21-0.05 0.93-0.74 3.94-1.53 6.69-0.9 3.13-3.1 6.87-5.87 10-2.43 2.75-6.63 6.22-9.32 7.7-2.69 1.49-7.14 3.42-9.89 4.29-2.75 0.87-9.05 1.85-14 2.17-4.99 0.33-12.23 0.09-16.25-0.54-3.99-0.61-14.23-3.37-22.75-6.12-8.52-2.75-17.3-5-19.5-5-2.2 0-5.46 0.6-7.25 1.33-1.79 0.74-4.49 2.76-6 4.5-2.12 2.45-2.75 4.2-2.75 7.67 0 3.27 0.64 5.25 2.34 7.25 1.28 1.51 3.53 3.09 5 3.5 1.61 0.45 3.75 0.25 5.41-0.51 1.92-0.89 2.75-2.01 2.75-3.75 0-1.84-0.59-2.56-2.25-2.74q-2.25-0.25-2.25-2.25c0-1.1 0.9-2.45 2-3 1.1-0.55 3.01-1 4.25-1.01 1.24 0 3.26 0.67 4.5 1.5 1.24 0.83 2.77 3.2 3.4 5.26 0.98 3.21 0.87 4.33-0.81 7.75-1.35 2.77-3.32 4.71-6.4 6.31-3.42 1.78-5.42 2.19-8.69 1.75-2.34-0.31-5.94-1.67-8-3.02-2.06-1.35-4.6-3.94-5.64-5.75-1.04-1.81-2.12-5.54-2.39-8.29-0.36-3.75 0.05-6.19 1.65-9.75 1.37-3.05 3.65-5.84 6.38-7.8 2.34-1.67 6.05-3.52 8.25-4.11 2.2-0.58 6.7-0.83 10-0.54 3.3 0.29 10.5 1.94 16 3.66 5.5 1.73 13.15 3.83 17 4.67 3.85 0.83 11.27 1.51 16.5 1.51 5.44-0.01 11.95-0.68 15.25-1.58 3.16-0.86 8-2.69 10.75-4.06 2.75-1.38 6.91-4.25 9.25-6.38 2.34-2.13 5.32-6.17 6.63-8.96 1.3-2.8 2.81-4.85 3.35-4.56z"/>
				<path id="Path 1" fill-rule="evenodd" class="s0" d="m672 840c0.55 0 2.8 1.13 5 2.5 2.2 1.38 4.51 3.51 5.13 4.75 0.62 1.24 0.9 4.05 0.61 6.25-0.28 2.2-1.05 5.35-2.9 10l-1.19-3.5c-0.64-1.92-1.96-4.74-2.91-6.25-0.96-1.51-3.32-3.42-5.24-4.25-1.92-0.83-4.74-1.49-6.25-1.49-2.55 0.02-2.41-0.2 2-3 2.61-1.65 4.75-3.46 4.75-4.01 0-0.55 0.45-1 1-1z"/>
			</g>
		</g>
	</g>
</svg>